<svg width="32" height="32" viewBox="0 0 32 32" fill="none" xmlns="http://www.w3.org/2000/svg">
<path d="M27.5655 6.33494H22.5963V4.22062C22.5916 3.06939 21.6575 2.13877 20.5063 2.1377H11.4753C10.3241 2.13877 9.39026 3.06939 9.38532 4.22062V6.33494H4.41614C2.51921 6.33494 0.990827 7.88848 0.990827 9.78541V26.2203C0.985667 28.1153 2.51813 29.6557 4.41313 29.6606H27.5655C29.4607 29.6574 30.9943 28.1183 30.9908 26.2231V9.7852C30.9908 7.88848 29.4624 6.33494 27.5655 6.33494ZM10.7615 4.22062C10.7653 3.82907 11.0838 3.51384 11.4753 3.51384H20.5063C20.8979 3.51384 21.2165 3.82907 21.2202 4.22062V6.33494H10.7615V4.22062ZM4.41614 7.71109H27.5655C28.704 7.71818 29.6213 8.64687 29.6147 9.78541V12.4588H2.36697V9.78541C2.36052 8.64687 3.2776 7.71818 4.41614 7.71109ZM29.6147 13.8349V17.3441H2.36697V13.8349H29.6147ZM27.5655 28.2845H4.41614C3.2819 28.2819 2.36461 27.3603 2.36697 26.2261V18.7203H29.6147V26.2203C29.6203 27.3545 28.7053 28.2787 27.5711 28.2845H27.5655Z" fill="white"/>
</svg>
