<svg width="32" height="32" viewBox="0 0 32 32" fill="none" xmlns="http://www.w3.org/2000/svg">
<g clip-path="url(#clip0_103_13210)">
<path d="M15.9999 0C24.837 0 32 7.164 32 16.0001C32 24.8371 24.837 32 15.9999 32C7.1629 32 0 24.837 0 16.0001C0 7.164 7.16301 0 15.9999 0Z" fill="#3B5998"/>
<path d="M17.9481 11.015H20.0101V7.96899H17.5861V7.97998C14.6491 8.084 14.0471 9.73498 13.9941 11.469H13.9881V12.99H11.9881V15.973H13.9881V23.9689H17.0021V15.973H19.4711L19.948 12.99H17.0031V12.0711C17.0031 11.485 17.393 11.015 17.9481 11.015Z" fill="white"/>
</g>
<defs>
<clipPath id="clip0_103_13210">
<rect width="32" height="32" fill="white"/>
</clipPath>
</defs>
</svg>
