<svg width="32" height="36" viewBox="0 0 32 36" fill="none" xmlns="http://www.w3.org/2000/svg">
<path d="M27.4 6.13403H4.54286C2.57077 6.13479 0.972328 7.93328 0.971436 10.1519V25.1543C0.972328 27.3729 2.57077 29.1717 4.54286 29.1722H27.4C29.3721 29.1717 30.9705 27.3729 30.9714 25.1543V10.1519C30.9705 7.93328 29.3721 6.13479 27.4 6.13403ZM4.54286 7.74118H27.4C28.4288 7.74419 29.3116 8.56559 29.5072 9.70164L15.9714 18.1876L2.43572 9.70164C2.63126 8.56559 3.51407 7.74419 4.54286 7.74118ZM27.4 27.5572H4.54286C3.36094 27.5532 2.40336 26.4762 2.40001 25.1465V11.518L15.6214 19.8106C15.7286 19.8769 15.8489 19.913 15.9714 19.9153C16.0944 19.9168 16.2152 19.8806 16.3214 19.8106L29.5429 11.518V25.1465C29.542 26.4774 28.583 27.556 27.4 27.5572Z" fill="white"/>
</svg>
