<svg width="32" height="32" viewBox="0 0 32 32" fill="none" xmlns="http://www.w3.org/2000/svg">
<path d="M14.4133 1.67997C14.4133 1.31164 14.115 1.01331 13.7467 1.01331H1.68C1.31167 1.01331 1.01334 1.31164 1.01334 1.67997V13.7466C1.01334 14.115 1.31167 14.4133 1.68 14.4133H13.7467C14.115 14.4133 14.4133 14.115 14.4133 13.7466V1.67997ZM13.08 13.08H2.34667V2.34664H13.08V13.08Z" fill="white"/>
<path d="M31.0133 1.67997C31.0133 1.31164 30.715 1.01331 30.3467 1.01331H18.28C17.9117 1.01331 17.6133 1.31164 17.6133 1.67997V13.7466C17.6133 14.115 17.9117 14.4133 18.28 14.4133H30.3467C30.715 14.4133 31.0133 14.115 31.0133 13.7466V1.67997ZM29.68 13.08H18.9467V2.34664H29.68V13.08Z" fill="white"/>
<path d="M14.4133 18.2799C14.4133 17.9116 14.115 17.6133 13.7467 17.6133H1.68C1.31167 17.6133 1.01334 17.9116 1.01334 18.2799V30.3466C1.01334 30.7149 1.31167 31.0133 1.68 31.0133H13.7467C14.115 31.0133 14.4133 30.7149 14.4133 30.3466V18.2799ZM13.08 29.6133H2.34667V18.9466H13.08V29.6133Z" fill="white"/>
<path d="M31.0133 18.2799C31.0133 17.9116 30.715 17.6133 30.3467 17.6133H18.28C17.9117 17.6133 17.6133 17.9116 17.6133 18.2799V30.3466C17.6133 30.7149 17.9117 31.0133 18.28 31.0133H30.3467C30.715 31.0133 31.0133 30.7149 31.0133 30.3466V18.2799ZM29.68 29.6133H18.9467V18.9466H29.68V29.6133Z" fill="white"/>
</svg>
