<svg width="32" height="32" viewBox="0 0 32 32" fill="none" xmlns="http://www.w3.org/2000/svg">
<g clip-path="url(#clip0_103_13222)">
<path d="M16 32.0001C24.8366 32.0001 32.0001 24.8366 32.0001 16C32.0001 7.16346 24.8366 0 16 0C7.16346 0 0 7.16346 0 16C0 24.8366 7.16346 32.0001 16 32.0001Z" fill="#D42428"/>
<path d="M27.3132 4.68457C33.5616 10.9335 33.5621 21.0645 27.3132 27.3135C21.0648 33.5619 10.9332 33.5622 4.68427 27.3135L27.3132 4.68457Z" fill="#CC202D"/>
<path d="M31.6784 19.2045L23.7595 11.2859L14.4199 12.3493L8.77057 21.0953L19.3268 31.6513C25.5333 30.3384 30.4127 25.429 31.6784 19.2045Z" fill="#BA202E"/>
<path d="M24.3729 12.9124C24.3729 11.5712 23.2863 10.484 21.9457 10.484H10.5583C9.21799 10.484 8.13159 11.5714 8.13159 12.9124V19.4244C8.13159 20.7657 9.2182 21.8528 10.5583 21.8528H21.9455C23.2863 21.8528 24.3727 20.7654 24.3727 19.4244V12.9124H24.3729ZM14.6276 18.9155V12.7993L19.2659 15.8576L14.6276 18.9155Z" fill="white"/>
</g>
<defs>
<clipPath id="clip0_103_13222">
<rect width="32" height="32" fill="white"/>
</clipPath>
</defs>
</svg>
